<svg xmlns="http://www.w3.org/2000/svg" xmlns:xlink="http://www.w3.org/1999/xlink" width="1080" zoomAndPan="magnify" viewBox="0 0 810 809.999993" height="1080" preserveAspectRatio="xMidYMid meet" version="1.0"><defs><g/><clipPath id="c895e23a9c"><path d="M 21.296875 21.296875 L 788.703125 21.296875 L 788.703125 788.703125 L 21.296875 788.703125 Z M 21.296875 21.296875 " clip-rule="nonzero"/></clipPath><clipPath id="995f80c320"><path d="M 405 21.296875 C 193.085938 21.296875 21.296875 193.085938 21.296875 405 C 21.296875 616.914062 193.085938 788.703125 405 788.703125 C 616.914062 788.703125 788.703125 616.914062 788.703125 405 C 788.703125 193.085938 616.914062 21.296875 405 21.296875 Z M 405 21.296875 " clip-rule="nonzero"/></clipPath><clipPath id="43696f7af5"><path d="M 0 335.171875 L 810 335.171875 L 810 473.128906 L 0 473.128906 Z M 0 335.171875 " clip-rule="nonzero"/></clipPath></defs><g clip-path="url(#c895e23a9c)"><g clip-path="url(#995f80c320)"><path fill="#5e17eb" d="M 21.296875 21.296875 L 788.703125 21.296875 L 788.703125 788.703125 L 21.296875 788.703125 Z M 21.296875 21.296875 " fill-opacity="1" fill-rule="nonzero"/></g></g><g clip-path="url(#43696f7af5)"><path fill="#ffffff" d="M -266.644531 335.171875 L 1076.824219 335.171875 L 1076.824219 473.128906 L -266.644531 473.128906 Z M -266.644531 335.171875 " fill-opacity="1" fill-rule="nonzero"/></g><g fill="#5e17eb" fill-opacity="1"><g transform="translate(239.342206, 630.05366)"><g><path d="M 156.21875 0 C 300.703125 0 390.859375 -85.15625 390.859375 -226.40625 C 390.859375 -368.53125 300.40625 -451.0625 156.21875 -451.0625 L 56.671875 -451.0625 C 48.75 -451.0625 44.640625 -446.9375 44.640625 -439.015625 L 44.640625 -12.046875 C 44.640625 -4.109375 48.75 0 56.671875 0 Z M 102.484375 -397.3125 L 155.34375 -397.3125 C 265.46875 -397.3125 333.296875 -337.40625 333.296875 -226.703125 C 333.296875 -116 265.46875 -53.734375 155.34375 -53.734375 L 102.484375 -53.734375 Z M 102.484375 -397.3125 "/></g></g></g><g fill="#ffffff" fill-opacity="1"><g transform="translate(212.674374, 628.353028)"><g><path d="M 156.21875 0 C 300.703125 0 390.859375 -85.15625 390.859375 -226.40625 C 390.859375 -368.53125 300.40625 -451.0625 156.21875 -451.0625 L 56.671875 -451.0625 C 48.75 -451.0625 44.640625 -446.9375 44.640625 -439.015625 L 44.640625 -12.046875 C 44.640625 -4.109375 48.75 0 56.671875 0 Z M 102.484375 -397.3125 L 155.34375 -397.3125 C 265.46875 -397.3125 333.296875 -337.40625 333.296875 -226.703125 C 333.296875 -116 265.46875 -53.734375 155.34375 -53.734375 L 102.484375 -53.734375 Z M 102.484375 -397.3125 "/></g></g></g></svg>